<?xml version="1.0" encoding="UTF-8"?> <!-- Generator: Adobe Illustrator 23.0.3, SVG Export Plug-In . SVG Version: 6.00 Build 0) --> <svg xmlns="http://www.w3.org/2000/svg" xmlns:xlink="http://www.w3.org/1999/xlink" id="Layer_1" x="0px" y="0px" viewBox="0 0 300 300" style="enable-background:new 0 0 300 300;" xml:space="preserve"> <style type="text/css"> .st0{fill:#FFFFFF;} </style> <rect class="st0" width="300" height="300"></rect> <g> <g> <path d="M42.92,134.04v21.75H23.97C25.73,146.46,34.02,137.95,42.92,134.04z"></path> <path d="M23.64,160.23h19.28v8.67c-0.01,0-0.02,0.01-0.03,0.01c-5.17,2.1-10.43,2.9-15.2,2.52h-0.01 c-0.07-0.01-0.14-0.01-0.21-0.02C25.69,168.66,23.86,164.77,23.64,160.23z"></path> <path d="M42.89,128.48c1.14,0.02,2.25,0.1,3.33,0.26c-1.05,0.12-2.16,0.36-3.3,0.7c-10.71,3.2-24.21,15.63-24.21,28.78 c0,5.12,1.05,8.97,2.32,11.75c-4.33-1.61-7.78-4.46-9.62-8.42c-4.67-10.03,2.62-23.33,16.3-29.71 C32.8,129.47,38.05,128.38,42.89,128.48z"></path> <path d="M47.92,160.23h7.72c-2.14,2.31-4.74,4.43-7.72,6.19V160.23z"></path> <path d="M59.05,155.74c-0.01,0.02-0.02,0.03-0.03,0.05h-11.1v-26.76c0.09,0.02,0.18,0.04,0.28,0.06 c5.78,1.28,10.46,4.48,12.74,9.36C63.43,143.8,62.52,150.08,59.05,155.74z"></path> </g> <g> <path d="M73.02,146.95l-4.68-0.84c0.53-1.88,1.43-3.28,2.72-4.18c1.28-0.91,3.19-1.36,5.72-1.36c2.3,0,4.01,0.27,5.14,0.82 c1.13,0.54,1.92,1.24,2.38,2.07s0.69,2.38,0.69,4.61l-0.06,6.02c0,1.71,0.08,2.98,0.25,3.79c0.16,0.81,0.47,1.68,0.93,2.61H81 c-0.13-0.34-0.3-0.85-0.5-1.52c-0.09-0.31-0.15-0.51-0.18-0.61c-0.88,0.86-1.82,1.5-2.83,1.93c-1,0.43-2.07,0.64-3.21,0.64 c-2.01,0-3.59-0.54-4.74-1.63c-1.16-1.09-1.73-2.46-1.73-4.13c0-1.1,0.26-2.08,0.79-2.94c0.53-0.86,1.26-1.52,2.21-1.98 c0.95-0.46,2.31-0.86,4.1-1.2c2.41-0.45,4.08-0.87,5.01-1.27v-0.51c0-0.99-0.24-1.7-0.73-2.12c-0.49-0.42-1.41-0.63-2.77-0.63 c-0.92,0-1.63,0.18-2.15,0.54C73.76,145.42,73.34,146.05,73.02,146.95z M79.92,151.14c-0.66,0.22-1.71,0.48-3.14,0.79 c-1.43,0.31-2.37,0.61-2.81,0.9c-0.67,0.48-1.01,1.08-1.01,1.82c0,0.72,0.27,1.35,0.81,1.87c0.54,0.53,1.22,0.79,2.05,0.79 c0.93,0,1.82-0.31,2.66-0.92c0.62-0.46,1.03-1.03,1.23-1.71c0.13-0.44,0.2-1.28,0.2-2.51V151.14z"></path> <path d="M103.27,160.49v-2.92c-0.71,1.04-1.64,1.86-2.8,2.46c-1.16,0.6-2.38,0.9-3.66,0.9c-1.31,0-2.48-0.29-3.52-0.86 c-1.04-0.57-1.79-1.38-2.26-2.42c-0.46-1.04-0.7-2.48-0.7-4.31v-12.33h5.16v8.95c0,2.74,0.09,4.42,0.28,5.04 c0.19,0.62,0.54,1.11,1.04,1.47c0.5,0.36,1.14,0.54,1.91,0.54c0.88,0,1.67-0.24,2.37-0.72s1.17-1.08,1.43-1.8 c0.26-0.72,0.38-2.47,0.38-5.26v-8.22h5.16v19.48H103.27z"></path> <path d="M131.64,160.49h-4.79v-2.86c-0.8,1.11-1.73,1.94-2.82,2.49s-2.17,0.82-3.27,0.82c-2.24,0-4.16-0.9-5.75-2.71 c-1.6-1.8-2.39-4.32-2.39-7.55c0-3.3,0.78-5.81,2.33-7.53c1.55-1.72,3.52-2.58,5.89-2.58c2.18,0,4.06,0.91,5.65,2.72v-9.69h5.16 V160.49z M117.88,150.33c0,2.08,0.29,3.58,0.86,4.51c0.83,1.35,1.99,2.02,3.49,2.02c1.19,0,2.2-0.5,3.03-1.51 c0.83-1.01,1.25-2.52,1.25-4.52c0-2.24-0.4-3.85-1.21-4.83c-0.81-0.98-1.84-1.48-3.1-1.48c-1.22,0-2.25,0.49-3.07,1.46 S117.88,148.4,117.88,150.33z"></path> <path d="M137.1,138.37v-4.77h5.16v4.77H137.1z M137.1,160.49v-19.48h5.16v19.48H137.1z"></path> <path d="M146.72,150.48c0-1.71,0.42-3.37,1.27-4.97c0.84-1.6,2.04-2.82,3.59-3.67c1.55-0.84,3.27-1.27,5.18-1.27 c2.95,0,5.36,0.96,7.25,2.87s2.83,4.33,2.83,7.26c0,2.95-0.95,5.39-2.85,7.33c-1.9,1.94-4.3,2.91-7.18,2.91 c-1.79,0-3.49-0.4-5.11-1.21c-1.62-0.81-2.85-1.99-3.7-3.55C147.14,154.61,146.72,152.71,146.72,150.48z M152,150.75 c0,1.93,0.46,3.41,1.38,4.44c0.92,1.03,2.05,1.54,3.39,1.54c1.35,0,2.47-0.51,3.38-1.54c0.91-1.03,1.37-2.52,1.37-4.48 c0-1.91-0.46-3.38-1.37-4.4c-0.91-1.03-2.04-1.54-3.38-1.54c-1.35,0-2.48,0.51-3.39,1.54C152.46,147.34,152,148.82,152,150.75z"></path> <path d="M182.52,154.29l5.14,0.86c-0.66,1.88-1.7,3.32-3.13,4.3c-1.42,0.98-3.21,1.48-5.35,1.48c-3.39,0-5.89-1.11-7.52-3.32 c-1.28-1.77-1.93-4.01-1.93-6.71c0-3.23,0.84-5.76,2.53-7.59c1.69-1.83,3.82-2.74,6.4-2.74c2.9,0,5.19,0.96,6.86,2.87 c1.68,1.91,2.48,4.85,2.4,8.8h-12.92c0.04,1.53,0.45,2.72,1.25,3.57c0.79,0.85,1.79,1.27,2.97,1.27c0.81,0,1.49-0.22,2.04-0.66 C181.82,155.98,182.24,155.27,182.52,154.29z M182.81,149.08c-0.04-1.49-0.42-2.63-1.16-3.4c-0.73-0.78-1.63-1.16-2.68-1.16 c-1.13,0-2.05,0.41-2.79,1.23c-0.73,0.82-1.09,1.93-1.08,3.34H182.81z"></path> <path d="M210.23,160.49h-5.16v-9.94c0-2.1-0.11-3.46-0.33-4.08c-0.22-0.62-0.58-1.1-1.07-1.44c-0.5-0.34-1.09-0.51-1.79-0.51 c-0.89,0-1.69,0.24-2.4,0.73c-0.71,0.49-1.2,1.14-1.46,1.94c-0.26,0.81-0.39,2.3-0.39,4.48v8.82h-5.16v-19.48h4.79v2.86 c1.7-2.2,3.84-3.3,6.42-3.3c1.14,0,2.18,0.21,3.12,0.61c0.94,0.41,1.65,0.93,2.14,1.57c0.48,0.64,0.82,1.36,1.01,2.16 c0.19,0.81,0.28,1.96,0.28,3.47V160.49z"></path> <path d="M215.36,161.78l5.89,0.72c0.1,0.69,0.32,1.16,0.68,1.41c0.49,0.37,1.26,0.55,2.31,0.55c1.35,0,2.35-0.2,3.03-0.61 c0.45-0.27,0.79-0.7,1.03-1.3c0.16-0.43,0.24-1.22,0.24-2.37v-2.84c-1.54,2.1-3.49,3.16-5.83,3.16c-2.62,0-4.69-1.11-6.22-3.32 c-1.2-1.75-1.8-3.93-1.8-6.53c0-3.27,0.79-5.76,2.36-7.48c1.57-1.72,3.53-2.59,5.86-2.59c2.41,0,4.4,1.06,5.96,3.17v-2.73h4.82 v17.48c0,2.3-0.19,4.02-0.57,5.15c-0.38,1.14-0.91,2.03-1.6,2.68c-0.69,0.65-1.6,1.16-2.74,1.52c-1.14,0.37-2.59,0.55-4.34,0.55 c-3.3,0-5.64-0.57-7.03-1.7c-1.38-1.13-2.07-2.57-2.07-4.3C215.34,162.23,215.34,162.02,215.36,161.78z M219.96,150.35 c0,2.07,0.4,3.58,1.2,4.54s1.79,1.44,2.96,1.44c1.26,0,2.32-0.49,3.19-1.48c0.87-0.98,1.3-2.44,1.3-4.38 c0-2.02-0.42-3.52-1.25-4.49c-0.83-0.98-1.88-1.47-3.16-1.47c-1.24,0-2.25,0.48-3.05,1.44 C220.36,146.91,219.96,148.38,219.96,150.35z"></path> <path d="M239.16,138.37v-4.77h5.16v4.77H239.16z M239.16,160.49v-19.48h5.16v19.48H239.16z"></path> <path d="M267.7,160.49h-5.16v-9.94c0-2.1-0.11-3.46-0.33-4.08c-0.22-0.62-0.58-1.1-1.07-1.44c-0.5-0.34-1.09-0.51-1.79-0.51 c-0.89,0-1.69,0.24-2.4,0.73c-0.71,0.49-1.2,1.14-1.46,1.94c-0.26,0.81-0.39,2.3-0.39,4.48v8.82h-5.16v-19.48h4.79v2.86 c1.7-2.2,3.84-3.3,6.42-3.3c1.14,0,2.18,0.21,3.12,0.61c0.94,0.41,1.65,0.93,2.14,1.57c0.48,0.64,0.82,1.36,1.01,2.16 c0.19,0.81,0.28,1.96,0.28,3.47V160.49z"></path> <path d="M284.58,154.29l5.14,0.86c-0.66,1.88-1.7,3.32-3.13,4.3c-1.42,0.98-3.21,1.48-5.35,1.48c-3.39,0-5.89-1.11-7.52-3.32 c-1.28-1.77-1.93-4.01-1.93-6.71c0-3.23,0.84-5.76,2.53-7.59c1.69-1.83,3.82-2.74,6.4-2.74c2.9,0,5.19,0.96,6.86,2.87 s2.48,4.85,2.4,8.8h-12.92c0.04,1.53,0.45,2.72,1.25,3.57c0.79,0.85,1.79,1.27,2.97,1.27c0.81,0,1.49-0.22,2.04-0.66 C283.89,155.98,284.3,155.27,284.58,154.29z M284.88,149.08c-0.04-1.49-0.42-2.63-1.16-3.4c-0.73-0.78-1.63-1.16-2.68-1.16 c-1.13,0-2.05,0.41-2.79,1.23c-0.73,0.82-1.09,1.93-1.08,3.34H284.88z"></path> </g> </g> </svg> 